<?xml version="1.0" encoding="utf-8"?>

<svg version="1.0"
	 id="svg1" xmlns:sodipodi="http://sodipodi.sourceforge.net/DTD/sodipodi-0.dtd" xmlns:svg="http://www.w3.org/2000/svg" xmlns:inkscape="http://www.inkscape.org/namespaces/inkscape"
	 xmlns="http://www.w3.org/2000/svg" xmlns:xlink="http://www.w3.org/1999/xlink" x="0px" y="0px" viewBox="0 0 451.7 451.7"
	 style="enable-background:new 0 0 451.7 451.7;" xml:space="preserve">
<style type="text/css">
	.st0{fill:url(#path4_00000116237774726586901610000008971988064131063426_);}
	.st1{fill:#FD71C8;}
	.st2{fill:#FFFFFF;}
</style>
<sodipodi:namedview  bordercolor="#000000" borderopacity="0.25" id="namedview1" inkscape:deskcolor="#d1d1d1" inkscape:pagecheckerboard="0" inkscape:pageopacity="0.0" inkscape:showpageshadow="2" pagecolor="#ffffff">
	
		<inkscape:page  bleed="0" height="793.70135" id="page1" inkscape:label="1" margin="10.140747 347.40799 104.23333 323.40668" width="1122.52" x="0" y="0">
		</inkscape:page>
</sodipodi:namedview>
<linearGradient id="path4_00000104708687523868188510000004788473048435354556_" gradientUnits="userSpaceOnUse" x1="-442.1665" y1="632.997" x2="-441.1665" y2="632.997" gradientTransform="matrix(366.5025 -366.5025 -366.5025 -366.5025 394069.2188 70372.5078)">
	<stop  offset="0" style="stop-color:#2982F8"/>
	<stop  offset="0.3295" style="stop-color:#10BCDF"/>
	<stop  offset="0.6006" style="stop-color:#05D7D3"/>
	<stop  offset="1" style="stop-color:#00E2CE"/>
</linearGradient>
<path id="path4" style="fill:url(#path4_00000104708687523868188510000004788473048435354556_);" d="M0,225.9
	c0,26.2,4.5,51.4,12.7,74.8l0,0c5.1,29.4,5.8,42.5,2,62.7l0,0c-2.7,14.4-11.1,23.8-9.7,37.4l0,0C6.4,413,7.3,420,18.3,431.9l0,0
	c13,13.1,25,12.3,28.8,12.9l0,0c13.3,2.1,23.2-5.5,37.7-7.3l0,0c22.8-2.8,39.3-4.4,76.7,4.9l0,0c0.1,0,0.3,0.1,0.4,0.1l0,0
	c20.3,6,41.7,9.2,64,9.2l0,0c124.7,0,225.9-101.1,225.9-225.9l0,0C451.7,101.1,350.6,0,225.9,0l0,0C101.1,0,0,101.1,0,225.9"/>
<path id="path5" class="st1" d="M272.5,152.9c0-8.4-6.8-15.3-15.3-15.3c-8.4,0-15.3,6.8-15.3,15.3s6.8,15.3,15.3,15.3
	C265.6,168.1,272.5,161.3,272.5,152.9"/>
<path id="path7" class="st2" d="M205.2,124.6c-7.9,0-14.4,5.9-15.2,13.7l0,0.3v138.2l0,0.3c0.8,7.8,7.3,13.7,15.2,13.7
	c8.5,0,15.3-6.8,15.3-15.2V139.7C220.5,131.4,213.6,124.6,205.2,124.6 M256.8,173.8c-6.4,0-15.4,3.8-15.4,12.5v89.2
	c0,12.5,9,15.2,15.4,15.2c8.4,0,15.2-6.8,15.2-15.2V189C271.9,180.6,265.1,173.8,256.8,173.8 M350.6,171.4c-7.5,0-14.6,1.6-21,4.8
	c-2.7,1.3-9,0.9-10.6,0.1c-1.6-0.8-2.7-2.5-4.7-2.5h-17.1c-3.3,0-5.9,2.8-5.7,6.1c0.6,8,0.9,16.4,0.9,28.1v67.4
	c0.1,5.5,0.7,5.7,0.7,5.7c2.4,5.9,9,9.9,15.9,9.4c8.1-0.6,14-7.9,14-16v-53.1c0-2.7,0.4-5.3,1-7l0.1-0.3c2.4-7.8,9.6-15.6,20.3-15.6
	c12.4,0,18.7,8.6,18.7,25.5v51.3c0.4,13.4,9.7,15.6,16.6,15.1c8.1-0.6,14-7.9,14-16V222C393.5,184.7,370.4,171.4,350.6,171.4
	 M120.3,266.6c-11,0-20.3-7.2-23.2-18c0,0,0,0,0,0c-0.4-2.2-0.7-4.3-0.7-6.6V224c0-2.1,0.6-4.6,1.1-6.4c3-11.5,12.6-19.5,23.5-19.5
	c17.7,0,25.7,16.8,25.7,33.5C146.6,253.5,136.8,266.6,120.3,266.6 M126.8,171.4c-8.4,0-16.1,1.7-22.9,5c-8.4,4.5-9.6,0.7-10.4-0.3
	c-0.8-1-0.6-2.3-4.7-2.3H74.4c0,0-9.8-0.6-9.3,5.9c0,0,0.9,21,0.9,34.2v103.9c0,8,5.8,15.2,13.8,15.9c9,0.8,16.6-6.3,16.6-15.1
	v-24.9c0-3.7,3.8-6.4,7.2-4.8c6,2.7,12.8,4.2,20,4.2c25.8,0,53.6-19.5,53.6-62.4C177.2,196.3,156,171.4,126.8,171.4"/>
</svg>
