<svg width="34" height="31" viewBox="0 0 34 31" fill="none" xmlns="http://www.w3.org/2000/svg">
<path d="M17.0001 0C19.2914 4.01768e-06 21.514 0.408035 23.6068 1.21074C25.6297 1.987 27.4475 3.09843 29.0091 4.51531C30.5729 5.9333 31.8007 7.58613 32.6591 9.42753C33.5486 11.3362 34 13.3639 34 15.4545C34 17.5451 33.5486 19.5729 32.6591 21.4816C31.8007 23.3229 30.5729 24.9747 29.0091 26.3938C27.4475 27.8106 25.6297 28.9221 23.6068 29.6983C21.514 30.5022 19.2914 30.9091 17.0001 30.9091C14.7087 30.9091 12.4861 30.5011 10.3932 29.6983C8.37025 28.9221 6.55246 27.8107 4.99087 26.3938C3.42707 24.9758 2.19929 23.323 1.34086 21.4816C0.451382 19.5729 2.42185e-06 17.5451 0 15.4545C0 13.364 0.451381 11.3362 1.34086 9.42753C2.19929 7.58613 3.42707 5.9344 4.99087 4.51531C6.55246 3.09843 8.37025 1.987 10.3932 1.21074C12.4861 0.406924 14.7087 0 17.0001 0Z" fill="#b07ae4"/>
<path d="M9.91829 11.7766C9.89715 11.8286 9.88491 11.8849 9.88268 11.9479C9.85709 12.5777 10.7783 13.0219 11.3101 13.0473C11.4926 13.0561 11.6761 13.055 11.8597 13.0429C12.0422 13.0307 12.2235 13.0075 12.406 13.0197C13.5875 13.0926 13.5141 14.6284 12.8777 15.2704C12.3014 15.8516 11.5271 15.7963 10.9029 15.3234C10.2843 14.8549 9.85264 14.003 9.52889 13.3136C9.40651 13.0517 9.24741 12.3213 8.90363 12.2606C8.47751 12.1854 8.45748 13.3655 8.44302 13.592C8.40519 14.2019 8.55427 15.003 8.08366 15.4792C7.60636 15.9621 6.12665 16.435 5.95309 15.4184C5.64825 13.6296 6.3436 11.9181 6.7775 10.2154C6.96664 9.47176 7.51069 8.27513 7.04007 7.55583C6.9099 7.35694 6.75303 7.14369 6.78196 6.90724C6.80866 6.68957 6.99445 6.5183 7.20139 6.44206C8.19825 6.07413 9.26521 5.9338 10.3155 5.81668C11.675 5.6653 13.5797 5.62332 13.81 7.39893C13.9547 8.50937 13.5608 9.50822 12.7019 10.2286C12.2413 10.6154 11.7384 10.8606 11.1755 11.054C10.7616 11.1954 10.1007 11.3159 9.91606 11.7755L9.91829 11.7766ZM9.9817 6.93707C9.51331 7.3249 9.38537 8.03426 9.2908 8.59887C9.21959 9.02316 8.9281 10.0651 9.2908 10.4043C9.97725 11.043 11.6183 7.88951 10.8183 6.99784C10.5969 6.75144 10.2343 6.72824 9.98059 6.93818L9.9817 6.93707Z" fill="#ffffff"/>
<path d="M15.9807 7.38787C16.3934 7.40886 16.8107 7.25528 17.2334 6.92822C17.5394 6.69177 17.7007 6.40559 17.7185 6.07191C17.733 5.8012 17.6595 5.57028 17.5004 5.38023C17.3413 5.19018 17.1377 5.08853 16.8885 5.07527C16.5336 5.05207 16.1587 5.15703 15.7637 5.38907C15.5757 5.50067 15.4222 5.64541 15.3042 5.82441C15.1863 6.0034 15.1218 6.18682 15.1118 6.37576C15.0973 6.64757 15.1741 6.88071 15.3421 7.07628C15.5101 7.27186 15.7226 7.37572 15.9796 7.38897L15.9807 7.38787Z" fill="#ffffff"/>
<path d="M24.7755 7.31606C24.3861 6.97022 23.9344 6.8299 23.4215 6.89509C22.7974 6.97464 22.211 7.38788 21.7338 7.76466C21.5335 7.92266 21.3766 7.99338 21.242 8.00664C20.7959 8.05304 20.6012 7.48069 19.9503 7.43981C19.0947 7.38678 19.0057 8.11602 18.939 8.77898C18.8366 9.80876 18.83 10.8629 18.5385 11.865C18.3326 12.5722 17.4826 14.308 16.4691 13.9611C15.7804 13.7246 16.2199 12.56 16.3634 12.107C16.5525 11.507 18.0912 7.44534 16.2343 7.8641C15.6758 7.99006 15.3754 8.1768 15.1885 8.62539C15.1507 8.71489 15.1184 8.81544 15.0884 8.92814C14.7491 10.2187 13.1514 14.15 14.8136 15.0339C15.8572 15.5897 17.0076 15.0803 17.7886 14.3257C17.7886 14.329 17.7875 14.3323 17.7864 14.3356C17.6339 15.2229 17.4804 16.2449 17.6339 17.1421C17.6562 17.2725 17.6896 17.4062 17.773 17.5078C17.9087 17.6714 18.1502 17.7145 18.3582 17.6692C18.7042 17.5929 19.0814 17.33 19.4085 17.1797C19.7389 17.0272 20.0404 16.8449 20.0983 16.456C20.1417 16.1632 20.0605 15.867 19.987 15.5798C19.8435 15.0151 19.7367 14.0594 20.6034 14.3798C21.4467 14.6914 22.1499 14.2892 22.7874 13.7688C23.7709 12.9633 24.4974 11.9998 24.9669 10.8783C25.324 10.0253 25.4564 9.24636 25.3641 8.53921C25.2951 8.00995 25.0993 7.60224 24.7766 7.31606H24.7755ZM22.863 10.1447C22.6427 11.0938 22.1754 12.5335 21.2031 12.9655C21.0851 13.0175 20.9483 13.055 20.8315 13.002C20.708 12.9456 20.6568 12.8186 20.6423 12.6782C20.6334 12.5921 20.639 12.5004 20.6501 12.4175C20.8059 11.2871 21.2342 9.90599 21.9685 9.02427C22.2544 8.69058 22.5048 8.5149 22.7195 8.49722C22.902 8.48175 23.0032 8.59556 23.0232 8.83643C23.0488 9.14029 22.9954 9.57673 22.863 10.1447Z" fill="#ffffff"/>
<path d="M27.5881 13.666C27.4757 13.6395 27.3422 13.6362 27.1831 13.6638C26.5601 13.7699 26.1195 13.9776 25.9448 14.6141C25.7379 15.3687 25.6756 16.1388 25.4876 16.8946C25.2372 17.9056 25.1237 18.9453 24.83 19.9464C24.6887 20.427 24.5107 20.9033 24.2482 21.3331C23.9533 21.8159 23.6207 22.0535 23.189 22.4071C22.4836 22.9849 21.687 23.4346 20.8481 23.2755C20.135 23.1396 20.0004 22.069 20.3464 21.543C20.7269 20.9651 21.2654 21.4414 21.8339 21.3253C22.4135 21.2071 22.9097 20.8701 23.308 20.4447C23.9734 19.7332 24.2571 18.9951 24.158 18.2305C24.1046 17.8172 23.9188 17.4891 23.6018 17.246C23.2802 17.004 22.843 16.9178 22.2911 16.9885C21.6759 17.067 21.074 17.3399 20.4843 17.8073C19.1226 18.9851 18.5318 20.5353 17.8131 22.1231C17.7063 22.3596 16.5759 24.0854 16.419 23.2037C16.3923 23.0534 16.4435 22.9021 16.4936 22.7584C16.6983 22.1596 16.7884 21.5021 16.9686 20.89C17.1299 20.3409 17.516 19.679 17.4415 19.1089C17.3892 18.71 17.2267 18.3885 16.9542 18.1443C16.6538 17.8791 16.2811 17.7763 15.8349 17.8327C15.1796 17.9167 14.7324 18.2879 14.2451 18.6934C14.1382 18.7818 13.9513 18.984 13.77 19.0348C13.6977 19.0547 13.6265 19.0514 13.5619 19.0072C13.3917 18.8912 13.5085 18.5586 13.355 18.3918C12.9433 17.9476 11.7073 18.3818 11.457 18.8514C11.3791 18.9984 11.3635 19.1696 11.349 19.3354C11.3101 19.8039 11.2968 20.2248 11.1521 20.6768C10.756 21.9507 10.4846 22.9418 10.3388 23.6523C10.2476 24.0954 9.91272 25.1992 10.2632 25.5749C10.7082 26.0522 11.5704 25.7925 12.0366 25.4677C12.8632 24.8909 12.5862 24.1064 12.732 23.2579C12.8087 22.8104 12.9845 22.259 13.2593 21.6027C13.493 21.0491 13.78 20.5475 14.1193 20.0956C14.4598 19.6437 14.7312 19.405 14.9348 19.3785C15.0951 19.3575 15.1874 19.4437 15.2119 19.6359C15.2241 19.7276 15.213 19.8459 15.1807 19.9917C14.9671 20.9441 14.6856 21.8679 14.482 22.8236C14.3797 23.3054 14.3129 23.8247 14.5076 24.2766C14.9315 25.2589 16.3534 25.2931 17.111 24.6567C17.4726 24.3528 17.7574 23.7959 18.1224 23.5462C18.524 23.27 18.9635 23.8037 19.2794 24.0346C19.5474 24.2302 19.7757 24.5164 19.9659 24.894C20.1562 25.2716 20.1435 25.4943 19.9255 25.5636C19.5784 25.6719 19.2035 25.6011 18.7918 25.3547C18.3801 25.1083 18.0808 24.7837 17.8939 24.3791C17.707 23.9745 17.7104 23.6209 17.9018 23.3204C17.9418 23.2589 17.9828 23.1908 18.0228 23.116C18.183 22.7966 18.2965 22.4099 18.3667 21.9541C18.4236 21.5851 18.4861 20.9549 18.2748 20.4282C17.9664 19.6491 17.5213 19.4668 17.1219 19.3662C16.559 19.2216 15.5017 18.8115 15.5017 18.8115L14.487 19.7622C14.6982 19.9213 14.952 20.0648 15.2558 20.1764C15.405 20.2316 15.6577 20.3157 15.7923 20.3058C16.026 20.286 16.1049 20.086 16.0226 19.9777C16 19.948 15.9796 19.9059 15.9591 19.8518C16.0114 19.8309 16.0671 19.8099 16.1263 19.7868C16.3109 19.7172 16.5167 19.6321 16.7416 19.5272C16.7383 19.536 16.7371 19.5449 16.735 19.5526C16.696 19.6984 16.62 19.8774 16.501 20.0885C16.2472 20.5349 15.9034 20.7282 15.508 20.6653C15.3912 20.6476 15.2877 20.6165 15.1877 20.5691C15.0396 20.5006 14.8915 20.3955 14.7411 20.254C14.6433 20.1623 14.5554 20.0584 14.4775 19.9423C14.3519 19.7555 14.2639 19.5698 14.2117 19.3853C14.1483 19.1626 14.1517 18.967 14.2195 18.7969C14.2906 18.6179 14.4174 18.4943 14.4831 18.4202L14.852 18.0621C16.2407 16.734 18.1076 14.4796 20.1801 14.2443C21.0692 14.1393 21.6429 14.0365 22.2046 13.776C22.4148 13.6721 22.6149 13.5549 22.805 13.4245L22.813 13.4189C22.8931 14.083 22.8664 14.913 22.6427 15.9191C22.2522 17.6358 21.5533 19.5763 19.8603 20.9375C19.5978 21.1431 19.3151 21.321 19.0124 21.4735C18.4423 21.7551 17.6635 22.0085 17.6635 22.0085C17.7337 22.2494 17.9686 22.5377 17.9686 22.5377C18.2256 22.562 18.521 22.5531 18.8614 22.5133C19.6458 22.4271 20.5158 22.1632 21.5004 21.6999C22.1335 21.3994 22.681 21.0657 23.1416 20.6989C24.3162 19.7728 24.9827 18.4411 25.3443 16.9173C25.5434 16.0576 25.6001 15.208 25.5179 14.3672C25.4668 13.8541 25.3945 13.2285 25.2309 12.7468C24.9839 12.0176 24.5965 11.5679 24.5965 11.5679C24.5965 11.5679 24.5742 11.5976 24.5409 11.641C24.522 11.6664 24.503 11.695 24.4795 11.7258C24.4362 11.7811 24.3817 11.8441 24.3171 11.9114C23.8108 12.446 23.0042 12.7664 22.2899 12.6306C21.6156 12.5008 21.0004 12.103 20.6955 11.4967C20.5097 11.1354 20.4729 10.7699 20.5689 10.3987C20.6604 10.0397 20.8579 9.76237 21.165 9.54799C21.364 9.40763 21.5541 9.31923 21.732 9.28389C22.5041 9.12034 22.9391 9.41976 23.295 9.87063C23.81 10.5293 23.8768 11.1049 23.8768 11.1049C24.2261 10.6529 24.649 9.00453 24.649 9.00453C24.6468 9.01994 24.6679 8.96362 24.7168 8.83199C24.8246 8.52251 24.9626 8.27168 25.1328 8.107C25.213 8.02968 25.291 7.97881 25.3689 7.95343L27.5881 13.666Z" fill="#ffffff"/>
</svg>