<?xml version="1.0" encoding="UTF-8"?>
<svg id="Capa_2" data-name="Capa 2" xmlns="http://www.w3.org/2000/svg" viewBox="0 0 306.57 280.31">
  <defs>
    <style>
      .cls-1 {
        fill: #f4f4ec;
      }

      .cls-2 {
        fill: #212322;
      }
    </style>
  </defs>
  <g id="Capa_1-2" data-name="Capa 1">
    <g>
      <path class="cls-1" d="m294.48,85.5c-7.74-16.7-18.81-31.69-32.91-44.55-14.08-12.85-30.47-22.93-48.71-29.97C193.98,3.69,173.94,0,153.29,0s-40.7,3.69-59.57,10.98c-18.24,7.04-34.63,17.12-48.71,29.97-14.1,12.87-25.17,27.85-32.91,44.55C4.07,102.81,0,121.2,0,140.16s4.07,37.35,12.09,54.66c7.74,16.7,18.81,31.69,32.91,44.55,14.08,12.85,30.47,22.93,48.71,29.97,18.87,7.28,38.91,10.98,59.57,10.98s40.7-3.69,59.57-10.98c18.24-7.04,34.63-17.12,48.71-29.97,14.1-12.87,25.17-27.85,32.91-44.55,8.02-17.31,12.09-35.7,12.09-54.66s-4.07-37.35-12.09-54.66Z"/>
      <g>
        <g>
          <path class="cls-2" d="m89.71,106.85c-.19.47-.3.98-.32,1.55-.23,5.7,8.05,9.72,12.83,9.95,1.64.08,3.29.07,4.94-.04,1.64-.11,3.27-.32,4.91-.21,10.62.66,9.96,14.56,4.24,20.37-5.18,5.26-12.14,4.76-17.75.48-5.56-4.24-9.44-11.95-12.35-18.19-1.1-2.37-2.53-8.98-5.62-9.53-3.83-.68-4.01,10-4.14,12.05-.34,5.52,1,12.77-3.23,17.08-4.29,4.37-17.59,8.65-19.15-.55-2.74-16.19,3.51-31.68,7.41-47.09,1.7-6.73,6.59-17.56,2.36-24.07-1.17-1.8-2.58-3.73-2.32-5.87.24-1.97,1.91-3.52,3.77-4.21,8.96-3.33,18.55-4.6,27.99-5.66,12.22-1.37,29.34-1.75,31.41,14.32,1.3,10.05-2.24,19.09-9.96,25.61-4.14,3.5-8.66,5.72-13.72,7.47-3.72,1.28-9.66,2.37-11.32,6.53Zm.57-43.8c-4.21,3.51-5.36,9.93-6.21,15.04-.64,3.84-3.26,13.27,0,16.34,6.17,5.78,20.92-22.76,13.73-30.83-1.99-2.23-5.25-2.44-7.53-.54Z"/>
          <g>
            <path class="cls-2" d="m144.2,67.14c3.71.19,7.46-1.2,11.26-4.16,2.75-2.14,4.2-4.73,4.36-7.75.13-2.45-.53-4.54-1.96-6.26-1.43-1.72-3.26-2.64-5.5-2.76-3.19-.21-6.56.74-10.11,2.84-1.69,1.01-3.07,2.32-4.13,3.94-1.06,1.62-1.64,3.28-1.73,4.99-.13,2.46.56,4.57,2.07,6.34,1.51,1.77,3.42,2.71,5.73,2.83Z"/>
            <path class="cls-2" d="m223.24,66.48c-3.5-3.13-7.56-4.4-12.17-3.81-5.61.72-10.88,4.46-15.17,7.87-1.8,1.43-3.21,2.07-4.42,2.19-4.01.42-5.76-4.76-11.61-5.13-7.69-.48-8.49,6.12-9.09,12.12-.92,9.32-.98,18.86-3.6,27.93-1.85,6.4-9.49,22.11-18.6,18.97-6.19-2.14-2.24-12.68-.95-16.78,1.7-5.43,15.53-42.19-1.16-38.4-5.02,1.14-7.72,2.83-9.4,6.89-.34.81-.63,1.72-.9,2.74-3.05,11.68-17.41,47.26-2.47,55.26,9.38,5.03,19.72.42,26.74-6.41,0,.03-.01.06-.02.09-1.37,8.03-2.75,17.28-1.37,25.4.2,1.18.5,2.39,1.25,3.31,1.22,1.48,3.39,1.87,5.26,1.46,3.11-.69,6.5-3.07,9.44-4.43,2.97-1.38,5.68-3.03,6.2-6.55.39-2.65-.34-5.33-1-7.93-1.29-5.11-2.25-13.76,5.54-10.86,7.58,2.82,13.9-.82,19.63-5.53,8.84-7.29,15.37-16.01,19.59-26.16,3.21-7.72,4.4-14.77,3.57-21.17-.62-4.79-2.38-8.48-5.28-11.07Zm-17.19,25.6c-1.98,8.59-6.18,21.62-14.92,25.53-1.06.47-2.29.81-3.34.33-1.11-.51-1.57-1.66-1.7-2.93-.08-.78-.03-1.61.07-2.36,1.4-10.23,5.25-22.73,11.85-30.71,2.57-3.02,4.82-4.61,6.75-4.77,1.64-.14,2.55.89,2.73,3.07.23,2.75-.25,6.7-1.44,11.84Z"/>
          </g>
        </g>
        <path class="cls-2" d="m248.53,123.95c-1.01-.24-2.21-.27-3.64-.02-5.6.96-9.56,2.84-11.13,8.6-1.86,6.83-2.42,13.8-4.11,20.64-2.25,9.15-3.27,18.56-5.91,27.62-1.27,4.35-2.87,8.66-5.23,12.55-2.65,4.37-5.64,6.52-9.52,9.72-6.34,5.23-13.5,9.3-21.04,7.86-6.41-1.23-7.62-10.92-4.51-15.68,3.42-5.23,8.26-.92,13.37-1.97,5.21-1.07,9.67-4.12,13.25-7.97,5.98-6.44,8.53-13.12,7.64-20.04-.48-3.74-2.15-6.71-5-8.91-2.89-2.19-6.82-2.97-11.78-2.33-5.53.71-10.94,3.18-16.24,7.41-12.24,10.66-17.55,24.69-24.01,39.06-.96,2.14-11.12,17.76-12.53,9.78-.24-1.36.22-2.73.67-4.03,1.84-5.42,2.65-11.37,4.27-16.91,1.45-4.97,4.92-10.96,4.25-16.12-.47-3.61-1.93-6.52-4.38-8.73-2.7-2.4-6.05-3.33-10.06-2.82-5.89.76-9.91,4.12-14.29,7.79-.96.8-2.64,2.63-4.27,3.09-.65.18-1.29.15-1.87-.25-1.53-1.05-.48-4.06-1.86-5.57-3.7-4.02-14.81-.09-17.06,4.16-.7,1.33-.84,2.88-.97,4.38-.35,4.24-.47,8.05-1.77,12.14-3.56,11.53-6,20.5-7.31,26.93-.82,4.01-3.83,14-.68,17.4,4,4.32,11.75,1.97,15.94-.97,7.43-5.22,4.94-12.32,6.25-20,.69-4.05,2.27-9.04,4.74-14.98,2.1-5.01,4.68-9.55,7.73-13.64,3.06-4.09,5.5-6.25,7.33-6.49,1.44-.19,2.27.59,2.49,2.33.11.83.01,1.9-.28,3.22-1.92,8.62-4.45,16.98-6.28,25.63-.92,4.36-1.52,9.06.23,13.15,3.81,8.89,16.59,9.2,23.4,3.44,3.25-2.75,5.81-7.79,9.09-10.05,3.61-2.5,7.56,2.33,10.4,4.42,8.68,6.37,19.19,4.67,28.08-.27,4.74-2.63,9.05-6.03,13.02-9.7,1.73-1.6,2.08-2.69,3.29-3.92,1.11-1.13,1.19.07,1.16.7-.13,2.48-.42,4.81-.41,7.28,0,1.75.6,3.66,2.1,4.56,2.24,1.34,9.71-.63,12.26-1.38,3.6-1.07,7.29-3.24,8.09-7.32,1.03-5.23.39-11.1.95-16.48.68-6.6,2-13.14,3.51-19.6,3.45-14.74,5.34-23.1,5.66-25.09,1.07-6.1,4.65-20.75-3.04-22.61Zm-60.31,54.01c.03-.14.06-.29.1-.45,1.13-4.6,7.85-15.25,12.77-15.39,1.35-.04,2.05.77,2.1,2.43.04,1.27-.3,3.08-1.01,5.42-1.39,4.6-4.31,12.3-9.85,13.13-.88.13-1.82.05-2.58-.41-1.51-.92-1.84-3-1.53-4.74Z"/>
      </g>
    </g>
  </g>
</svg>