<?xml version="1.0" encoding="UTF-8" standalone="no"?>
<!-- Generator: Adobe Illustrator 16.0.0, SVG Export Plug-In . SVG Version: 6.00 Build 0)  -->

<svg
   version="1.1"
   id="Capa_1"
   x="0px"
   y="0px"
   width="269.48801"
   height="269.48804"
   viewBox="-35.146 0 269.48801 269.48804"
   enable-background="new -35.146 0 510.292 269.396"
   xml:space="preserve"
   xmlns="http://www.w3.org/2000/svg"
   xmlns:svg="http://www.w3.org/2000/svg"><defs
   id="defs5" />

<circle
   style="fill:#9117a0;fill-opacity:1;stroke-width:2.95011"
   id="path6"
   cx="99.598"
   cy="134.744"
   r="134.744" /><g
   id="g5"
   transform="matrix(0.93756873,0,0,0.96435396,-111.35095,-6.6012919)">
	<g
   id="g2">
		<path
   fill="#ffffff"
   d="m 297.795,177.02 c -1.441,-0.54 -2.943,-0.532 -4.448,-0.511 -7.903,0.115 -15.79,0.593 -23.669,1.199 -7.721,0.597 -15.429,1.348 -23.122,2.234 -2.21,0.254 -4.418,0.505 -6.775,0.773 1.327,-4.597 2.611,-9.057 3.956,-13.729 1.525,2.265 3.451,3.429 5.87,3.731 1.71,0.216 3.383,-0.06 5.022,-0.54 5.641,-1.643 9.976,-5.168 13.383,-9.785 7.119,-9.653 9.828,-20.671 9.479,-32.519 -0.083,-2.816 -0.705,-5.582 -2.058,-8.112 -1.481,-2.785 -3.681,-4.591 -6.906,-4.994 -4.685,-0.585 -8.341,1.212 -11.229,4.804 -0.469,0.584 -0.868,1.219 -1.463,2.062 0,-1.023 0.067,-1.782 -0.014,-2.527 -0.179,-1.656 -1.307,-2.563 -2.955,-2.358 -3.687,0.458 -6.494,2.092 -7.635,5.875 -0.233,0.774 -0.513,1.533 -0.729,2.311 -2.179,7.862 -4.327,15.729 -6.529,23.582 -0.883,3.147 -1.604,6.34 -2.712,9.421 -0.631,1.756 -1.59,3.265 -3.374,4.054 -1.624,0.721 -2.42,0.281 -2.618,-1.479 -0.188,-1.662 0.04,-3.31 0.311,-4.946 1.252,-7.618 3.532,-14.969 5.763,-22.334 0.9,-2.982 2.085,-5.879 2.765,-8.922 0.467,-2.083 -0.247,-3.398 -2.202,-4.282 -0.776,-0.35 -1.587,-0.579 -2.441,-0.641 -3,-0.224 -4.4,0.646 -5.514,3.421 -0.105,0.266 -0.092,0.629 -0.448,0.751 -4.12,-4.288 -10.102,-4.411 -14.895,-1.317 -2.59,1.669 -4.78,3.765 -6.685,6.163 -5.067,6.388 -8.238,13.689 -10.236,21.529 -1.396,5.483 -2.217,11.032 -1.157,16.695 1.228,6.56 5.709,10.069 12.23,9.429 4.779,-0.469 8.143,-3.179 10.595,-7.169 0.203,-0.329 0.289,-0.765 0.706,-0.994 0.5,4.094 3.282,6.229 7.333,5.753 2.133,-0.248 4.115,-0.926 6.055,-1.87 0.019,0.151 0.063,0.271 0.041,0.37 -0.847,3.119 -1.717,6.234 -2.537,9.36 -0.17,0.641 -0.616,0.7 -1.112,0.771 -2.328,0.326 -4.655,0.644 -6.981,0.97 -11.937,1.672 -23.833,3.593 -35.7,5.702 -1.787,0.318 -3.572,0.634 -5.471,0.969 0.096,-0.335 0.136,-0.481 0.18,-0.626 6.067,-19.865 12.133,-39.732 18.201,-59.598 0.429,-1.404 0.837,-2.811 0.835,-4.292 -0.002,-2.023 -0.913,-2.963 -2.936,-2.773 -4.758,0.452 -8.732,2.186 -10.714,6.956 -0.31,0.745 -0.678,1.469 -0.953,2.228 -1.39,3.832 -2.698,7.696 -4.148,11.507 -2.481,6.513 -5.141,12.952 -8.989,18.812 -1.251,1.909 -2.637,3.712 -4.458,5.121 -1.05,0.814 -2.182,1.449 -3.563,1.486 -1.918,0.052 -2.6,-0.611 -2.524,-2.545 0.057,-1.43 0.355,-2.826 0.717,-4.207 1.527,-5.774 3.749,-11.319 5.515,-17.011 0.914,-2.938 1.892,-5.865 2.006,-8.985 0.042,-1.186 -0.407,-2.08 -1.363,-2.765 -2.396,-1.715 -5.071,-2.198 -7.911,-1.67 -2.208,0.407 -2.985,1.555 -2.493,3.856 0.445,2.096 0.209,4.037 -0.606,5.971 -0.434,1.028 -0.798,2.087 -1.171,3.135 -2.216,6.227 -5.024,12.252 -6.257,18.809 -0.708,3.766 -1.227,7.534 -0.565,11.36 0.783,4.506 3.676,6.939 8.24,6.979 1.592,0.014 3.147,-0.206 4.681,-0.624 3.972,-1.08 7.281,-3.232 10.254,-6.547 -0.061,0.498 -0.053,0.693 -0.11,0.864 -1.79,5.445 -3.596,10.884 -5.368,16.334 -0.187,0.571 -0.528,0.736 -1.046,0.891 -6.758,2.028 -13.07,5.015 -18.943,8.917 -7.218,4.793 -13.514,10.484 -17.539,18.337 -2.792,5.445 -4.784,11.095 -4.467,17.346 0.284,5.625 3.465,9.569 8.938,10.924 7.087,1.748 13.42,0.067 19.089,-4.38 5.124,-4.021 8.797,-9.236 12.019,-14.807 3.8,-6.565 6.804,-13.506 9.53,-20.559 l 0.092,-0.244 1.858,-4.886 3.301,-0.667 c 0.099,-0.027 0.199,-0.047 0.303,-0.068 1.406,-0.283 2.812,-0.568 4.217,-0.85 13.65,-2.761 27.304,-5.489 41.072,-7.594 0.966,-0.148 0.889,0.116 0.709,0.847 -0.475,1.903 -0.936,3.823 -0.758,5.815 0.121,1.335 0.732,2.119 2.049,2.261 3.707,0.394 6.734,-0.753 7.952,-4.206 0.643,-1.816 1.171,-3.664 1.643,-5.527 0.159,-0.636 0.433,-0.922 1.149,-0.998 2.948,-0.309 5.885,-0.739 8.831,-1.069 14.593,-1.629 29.223,-2.851 43.856,-4.025 2.299,-0.181 4.617,-0.253 6.867,-0.864 1.356,-0.366 2.402,-1.078 2.755,-2.505 0.249,-1.007 0.472,-2.031 0.564,-3.061 0.165,-1.883 -0.636,-3.032 -2.435,-3.703 z m -51.19,-19.045 c 2.133,-7.754 4.123,-15.552 7.584,-22.858 0.893,-1.885 1.979,-3.66 3.463,-5.156 1.094,-1.101 2.396,-1.785 3.926,-2.054 1.881,-0.328 3.232,0.398 3.979,2.161 0.394,0.93 0.631,2.395 0.608,3.992 -0.229,4.916 -1.908,9.696 -3.972,14.364 -1.221,2.755 -2.667,5.388 -4.643,7.685 -1.766,2.054 -3.757,3.784 -6.597,4.122 -1.439,0.17 -2.739,-0.198 -3.912,-1.065 -0.433,-0.319 -0.572,-0.684 -0.436,-1.191 z m -22.21,-23.788 c -0.167,3.508 -1.261,6.801 -2.439,10.055 -1.556,4.306 -3.262,8.553 -5.413,12.604 -0.887,1.671 -1.872,3.279 -3.238,4.612 -0.898,0.874 -1.902,1.567 -3.192,1.718 -2.27,0.266 -3.824,-0.714 -4.481,-2.9 -0.816,-2.717 -0.382,-5.431 0.232,-8.105 1.475,-6.422 3.897,-12.401 8.447,-17.331 1.311,-1.423 2.734,-2.717 4.45,-3.645 0.503,-0.271 1.039,-0.513 1.591,-0.667 2.562,-0.707 3.952,0.325 4.042,2.968 0.008,0.228 0.001,0.46 0.001,0.691 z m -65.277,78.487 c -2.837,6.523 -6.237,12.712 -10.937,18.108 -1.94,2.224 -4.165,4.118 -6.75,5.546 -1.177,0.647 -2.479,1.386 -3.79,0.508 -1.259,-0.844 -1.136,-2.294 -1,-3.597 0.51,-4.897 2.577,-9.128 5.645,-12.924 4.901,-6.067 10.786,-10.839 18.059,-13.799 0.284,-0.116 0.575,-0.216 0.868,-0.315 0.069,-0.024 0.149,-0.013 0.414,-0.027 -0.729,2.278 -1.595,4.399 -2.509,6.5 z"
   id="path1" />
		<path
   fill="#ffffff"
   d="m 288.35,147.698 0.37,-1.712 1.911,-0.204 c 5.953,-0.677 11.324,-2.862 16.117,-6.48 4.69,-3.536 7.984,-7.926 8.902,-13.919 1.084,-7.063 -2.504,-12.387 -9.519,-13.677 -4.235,-0.779 -8.091,0.412 -11.635,2.709 -4.278,2.778 -7.416,6.608 -9.734,11.083 -4.306,8.312 -6.182,17.264 -6.755,26.534 0.039,2.176 0.202,4.327 0.741,6.429 1.193,4.637 3.857,7.779 8.784,8.695 7.51,1.396 17.917,-3.543 21.485,-10.337 1.2,-2.291 1.799,-4.769 1.118,-7.371 -0.56,-2.126 -1.983,-2.662 -3.847,-1.497 -1.226,0.769 -2.116,1.894 -3.118,2.906 -2.694,2.723 -5.719,4.939 -9.586,5.682 -2.566,0.492 -4.688,-0.849 -5.406,-3.36 -0.479,-1.692 -0.285,-3.359 0.069,-5.038 z m 3.126,-11.858 c 1.503,-5.308 3.559,-10.321 7.632,-14.25 0.412,-0.397 0.884,-0.749 1.378,-1.035 2.51,-1.443 4.776,-0.107 4.794,2.931 -0.046,0.644 -0.12,1.417 -0.42,2.128 -2.434,5.718 -6.536,9.473 -12.719,10.776 -0.524,0.112 -0.855,0.128 -0.665,-0.55 z"
   id="path2" />
	</g>
	<g
   id="g3">
		<path
   fill="#00ccb4"
   d="m 271.709,60.054 c 0,21.788 -18.395,39.45 -41.086,39.45 -2.416,0 -4.787,-0.201 -7.092,-0.584 -1.138,-0.19 -2.263,-0.429 -3.365,-0.707 -1.194,-0.301 -2.367,-0.649 -3.515,-1.05 -0.949,-0.128 -1.855,0.118 -2.752,0.661 -1.612,0.976 -8.89,5.714 -10.743,6.6 -0.547,0.256 -1.118,0.422 -1.689,0.536 -1.031,0.206 -1.761,-0.564 -1.818,-1.783 -0.102,-2.098 1.497,-12.776 1.401,-14.178 -0.131,-0.96 -0.49,-1.788 -0.959,-2.549 -6.558,-6.994 -10.55,-16.245 -10.55,-26.395 0,-21.79 18.393,-39.45 41.083,-39.45 0.218,0 0.434,0.002 0.65,0.004 1.504,0.023 2.986,0.122 4.446,0.296 2.075,0.246 4.102,0.641 6.07,1.175 0.025,0.003 0.056,0.015 0.083,0.02 7.225,1.971 13.646,5.794 18.657,10.905 6.93,7.063 11.179,16.576 11.179,27.049 z"
   id="path3" />
	</g>
	<path
   fill="#9117a0"
   d="m 237.959,79.115 c -0.372,0 -0.751,-0.091 -1.103,-0.283 -1.122,-0.61 -1.537,-2.015 -0.928,-3.138 l 16.05,-29.507 c 0.612,-1.123 2.016,-1.538 3.138,-0.925 1.123,0.61 1.537,2.015 0.928,3.138 l -16.05,29.507 c -0.419,0.77 -1.214,1.208 -2.035,1.208 z"
   id="path4" />
	<path
   fill="#9117a0"
   d="m 221.081,44.268 c -0.963,0 -1.896,0.093 -2.767,0.27 -1.488,0.305 -2.81,0.828 -3.925,1.556 -1.126,0.731 -2.052,1.678 -2.748,2.813 -0.697,1.132 -1.135,2.416 -1.304,3.814 -0.153,1.257 -0.103,2.419 0.145,3.457 0.253,1.057 0.766,2.041 1.522,2.924 0.742,0.868 1.755,1.68 3.011,2.417 1.237,0.728 2.783,1.414 4.594,2.041 1.733,0.622 3.221,1.205 4.419,1.732 1.169,0.517 2.104,1.057 2.785,1.607 0.647,0.524 1.097,1.097 1.334,1.699 0.239,0.606 0.308,1.342 0.205,2.185 -0.096,0.811 -0.362,1.523 -0.788,2.118 -0.431,0.597 -0.991,1.087 -1.666,1.453 -0.693,0.371 -1.509,0.625 -2.433,0.751 -0.464,0.062 -0.952,0.094 -1.45,0.094 -0.514,0 -1.055,-0.034 -1.606,-0.101 -1.146,-0.138 -1.791,-0.4 -2.767,-0.798 l -0.093,-0.036 c -1,-0.406 -1.645,-0.961 -2.325,-1.592 -0.698,-0.645 -1.233,-1.436 -1.598,-2.353 -0.364,-0.92 -0.523,-1.99 -0.472,-3.187 0.073,-0.642 -0.11,-1.273 -0.517,-1.783 -0.41,-0.51 -0.996,-0.835 -1.651,-0.916 -0.1,-0.013 -0.205,-0.019 -0.306,-0.019 -1.245,0 -2.297,0.92 -2.447,2.139 v 0.005 l -0.001,0.006 c -0.16,1.684 -0.041,3.3 0.355,4.798 0.4,1.52 1.123,2.894 2.146,4.09 1.189,1.391 2.326,2.284 3.797,2.991 1.581,0.757 3.114,1.32 5.464,1.605 0.664,0.081 1.324,0.122 1.958,0.122 1.029,0 2.033,-0.109 2.983,-0.321 1.542,-0.345 2.922,-0.92 4.101,-1.713 1.186,-0.795 2.169,-1.808 2.921,-3.009 0.755,-1.203 1.23,-2.581 1.416,-4.094 0.144,-1.182 0.094,-2.29 -0.146,-3.299 -0.234,-1.001 -0.613,-1.917 -1.122,-2.719 -0.505,-0.793 -1.106,-1.499 -1.789,-2.094 -0.675,-0.591 -1.4,-1.094 -2.152,-1.496 l -0.007,-0.003 -0.006,-0.002 c -0.802,-0.398 -1.745,-0.828 -2.807,-1.278 -1.058,-0.448 -2.303,-0.944 -3.696,-1.472 -1.414,-0.511 -2.57,-0.986 -3.446,-1.412 -0.857,-0.415 -1.526,-0.843 -1.991,-1.265 -0.431,-0.394 -0.709,-0.819 -0.831,-1.262 -0.13,-0.472 -0.154,-1.037 -0.077,-1.679 0.166,-1.372 0.853,-2.388 2.103,-3.106 0.958,-0.55 2.153,-0.83 3.55,-0.83 0.566,0 1.17,0.047 1.794,0.138 2.555,0.379 5.26,2.834 5.225,5.886 -0.073,0.648 0.114,1.284 0.525,1.798 0.413,0.518 1.007,0.848 1.671,0.928 0.103,0.011 0.207,0.019 0.311,0.019 1.175,0 2.178,-0.807 2.435,-1.915 l 0.019,-0.01 0.025,-0.248 c 0.17,-1.636 0.033,-2.938 -0.456,-4.359 -0.428,-1.229 -0.776,-1.687 -1.418,-2.518 -0.089,-0.114 -0.181,-0.236 -0.283,-0.369 -0.811,-1.065 -1.672,-1.797 -2.971,-2.529 -1.511,-0.851 -2.992,-1.341 -4.667,-1.543 -0.711,-0.083 -1.412,-0.126 -2.085,-0.126 z"
   id="path5" />
</g>
</svg>
